<svg width="200" height="200" viewBox="0 0 200 200" fill="none"
  xmlns="http://www.w3.org/2000/svg">
  <path d="M181.25 100C181.25 55.1289 144.871 18.75 100 18.75C55.1289 18.75 18.75 55.1289 18.75 100C18.75 144.871 55.1289 181.25 100 181.25C144.871 181.25 181.25 144.871 181.25 100Z" stroke="#F1F7F6" stroke-width="12.5" stroke-miterlimit="10"/>
  <path d="M174.051 67.2422C167.777 67.2813 168.394 78.8555 160.578 73.3946C157.676 71.3711 155.89 68.4297 152.246 67.5352C149.062 66.754 145.801 67.5665 142.656 68.1094C139.082 68.7266 134.844 69.004 132.133 71.711C129.512 74.3165 128.125 77.8126 125.336 80.4336C119.941 85.5118 117.664 91.0547 121.156 98.2344C124.515 105.137 131.543 108.883 139.125 108.391C146.574 107.895 154.312 103.574 154.097 114.398C154.019 118.227 154.82 120.883 155.996 124.441C157.086 127.723 157.012 130.902 157.262 134.289C157.722 140.617 158.887 147.711 162.027 153.301L167.887 145.035C168.609 144.012 170.121 142.578 170.48 141.371C171.117 139.234 169.863 135.563 169.719 133.168C169.574 130.773 169.644 128.348 169.277 125.953C168.762 122.598 166.777 119.453 166.504 116.137C166 109.961 167.129 105.031 162.371 99.8672C157.777 94.8868 151.043 93.6915 144.609 94.7032C141.367 95.211 128.316 97.2969 133.554 89.8868C134.59 88.4297 136.398 87.2344 137.562 85.8477C138.574 84.6407 139.453 82.4219 140.64 81.4805C141.828 80.5391 147.281 79.4571 148.844 79.9376C150.406 80.418 152.035 82.6719 153.39 83.6719C155.895 85.5583 158.817 86.8125 161.91 87.3282C167.246 88.1094 178.402 85.0079 178.316 78.1641C178.301 74.8829 175.254 70.3126 174.051 67.2422ZM112.285 123.555C110.203 114.789 98.2928 111.859 91.8709 107.106C88.1795 104.371 84.8943 100.148 80.0467 99.8047C77.8123 99.6446 75.9412 100.129 73.7264 99.5547C71.6951 99.0313 70.1014 97.9376 67.9373 98.2227C63.8943 98.754 61.3435 103.074 56.9998 102.488C52.8787 101.934 48.6326 97.1133 47.6951 93.1876C46.492 88.1407 50.4842 86.504 54.7615 86.0547C56.5467 85.8672 58.5506 85.6641 60.2654 86.3165C62.5232 87.1563 63.5896 89.3672 65.617 90.4844C69.4178 92.5665 70.1873 89.2383 69.6053 85.8633C68.7342 80.8086 67.7185 78.7461 72.2264 75.2696C75.3514 72.8711 78.0232 71.1368 77.5232 66.8282C77.2264 64.2969 75.8396 63.1524 77.1326 60.6329C78.1131 58.7149 80.8045 56.9844 82.5584 55.8399C87.0857 52.8868 101.953 53.1055 95.8787 44.8399C94.0935 42.4141 90.8006 38.0782 87.6756 37.4844C83.7693 36.7461 82.0349 41.1055 79.3123 43.0274C76.4998 45.0157 71.0232 47.2735 68.2068 44.1993C64.4178 40.0626 70.7185 38.7032 72.1131 35.8165C73.5076 32.9297 68.8826 27.4727 66.406 26.0899L54.7615 39.1485C54.427 41.3354 54.5435 43.5677 55.1037 45.708C55.664 47.8482 56.6562 49.8513 58.0193 51.5938C60.3357 54.5743 64.0232 55.5313 64.1912 59.6016C64.3553 63.5079 63.7459 65.5079 61.1912 68.254C60.0857 69.4258 59.3045 71.0899 58.1795 72.1876C56.8006 73.5274 57.3123 73.1172 55.16 73.4844C51.1131 74.168 47.6678 75.2227 43.7576 76.3008C37.242 78.1016 36.6404 67.4571 33.6717 63.2813L23.906 71.168C23.8006 72.461 25.5076 74.8399 25.9725 76.2461C28.6404 84.2813 34.0232 90.4961 37.4998 98.1836C41.16 106.324 50.9881 104.066 55.3279 111.199C59.1795 117.527 55.0662 125.539 57.949 132.164C60.0428 136.973 64.9803 138.023 68.3865 141.539C71.867 145.09 71.7928 149.949 72.324 154.57C72.9231 160.006 73.8955 165.393 75.2342 170.695C75.7068 172.527 76.1404 174.949 77.3943 176.461C78.2537 177.5 81.2029 178.395 80.0115 178.738C81.6756 179.012 84.6404 180.566 86.0271 179.426C87.8553 177.926 87.367 173.309 87.6834 171.223C88.6326 165.012 91.742 158.938 95.9373 154.289C100.082 149.703 105.762 146.598 109.262 141.398C112.672 136.328 113.699 129.488 112.285 123.555ZM99.242 133.836C96.8982 138.02 91.6795 140.82 88.324 144.145C87.4139 145.047 85.4764 148.172 84.3357 147.496C83.5193 147.012 83.242 142.957 82.9412 142.027C81.3895 137.346 78.4272 133.259 74.4607 130.328C73.2381 129.402 70.2068 128.199 69.5076 126.93C68.7264 125.551 69.4295 122.297 69.4568 120.797C69.4998 118.609 68.5037 114.973 69.0428 112.984C69.6678 110.691 68.4646 112.074 70.5154 111.621C71.5975 111.379 76.0662 112.164 77.4139 112.445C79.5545 112.891 80.7342 114.223 82.4217 115.57C86.8592 119.129 91.7459 121.883 96.7185 124.609C100.57 126.742 101.703 129.441 99.242 133.836ZM72.0545 26.2071C73.906 28.0157 75.6482 30.1563 78.4099 30.336C81.0232 30.5118 83.4881 29.0977 85.7693 30.8751C88.3006 32.8282 90.1248 35.3008 93.4842 35.9102C96.7342 36.5001 100.176 34.6016 100.98 31.2774C101.762 28.1094 100.078 24.6641 99.9764 21.4844C99.9764 21.043 100.215 19.0821 99.91 18.7501C99.6834 18.5001 97.7928 18.7813 97.5037 18.7891C95.3865 18.8516 93.2745 18.9974 91.1678 19.2266C83.4874 20.0579 75.9657 21.985 68.8318 24.9493C69.781 25.6055 70.9725 25.8672 72.0545 26.2071ZM139.219 48.1524C142.535 48.1524 145.902 46.668 144.832 42.8321C143.933 39.6172 142.402 36.129 138.676 37.8633C136.304 38.9649 132.945 41.7696 132.668 44.5508C132.351 47.7071 137.008 48.1524 139.219 48.1524ZM136.57 64.9376C139.957 66.9649 144.98 66.0118 147.535 63.1172C149.531 60.8516 150.707 56.918 154.297 56.9219C155.877 56.9186 157.395 57.5375 158.523 58.6446C160.008 60.1797 159.715 61.6211 160.031 63.543C160.738 67.8594 165.367 63.7891 166.574 62.1172C167.355 61.0274 168.414 59.4102 168.058 57.9922C167.73 56.668 166.183 55.2579 165.496 54.043C163.488 50.5274 161.836 46.4376 158.828 43.5977C155.933 40.8633 152.375 41.1797 149.629 44.0196C147.379 46.3633 144.765 48.2188 143.226 51.0704C142.14 53.0743 140.918 54.0313 138.719 54.5508C137.508 54.836 136.125 54.9415 135.109 55.754C132.281 57.9805 133.89 63.3282 136.57 64.9376Z" fill="#F1F7F6"/>
</svg>
