<svg width="200" height="200" viewBox="0 0 200 200" fill="none"
  xmlns="http://www.w3.org/2000/svg">
  <path d="M181.083 150L114.417 33.3334C112.963 30.7684 110.855 28.635 108.308 27.1507C105.76 25.6663 102.865 24.8843 99.9166 24.8843C96.9683 24.8843 94.0729 25.6663 91.5255 27.1507C88.9782 28.635 86.8702 30.7684 85.4166 33.3334L18.7499 150C17.2806 152.545 16.5101 155.433 16.5166 158.371C16.5231 161.309 17.3064 164.194 18.787 166.732C20.2675 169.27 22.3928 171.372 24.9474 172.824C27.5019 174.276 30.395 175.027 33.3332 175H166.667C169.591 174.997 172.463 174.225 174.994 172.761C177.525 171.297 179.627 169.193 181.087 166.659C182.548 164.126 183.317 161.253 183.316 158.329C183.315 155.405 182.545 152.532 181.083 150Z" stroke="#F1F7F6" stroke-width="16.6667" stroke-linecap="round" stroke-linejoin="round"/>
  <path d="M100 75V108.333" stroke="#F1F7F6" stroke-width="16.6667" stroke-linecap="round" stroke-linejoin="round"/>
  <path d="M100 141.667H100.083" stroke="#F1F7F6" stroke-width="16.6667" stroke-linecap="round" stroke-linejoin="round"/>
</svg>
