<svg width="200" height="200" viewBox="0 0 200 200" fill="none"
  xmlns="http://www.w3.org/2000/svg">
  <g clip-path="url(#clip0_124_1381)">
    <path d="M101.834 165.417C100.334 166.917 97.667 167.167 95.917 165.417C95.1364 164.63 94.6984 163.567 94.6984 162.458C94.6984 161.35 95.1364 160.287 95.917 159.5L124.167 131.25L112.417 119.5L84.167 147.75C82.5837 149.417 79.917 149.333 78.2504 147.75C77.4697 146.963 77.0317 145.9 77.0317 144.792C77.0317 143.683 77.4697 142.62 78.2504 141.833L106.5 113.583L94.7504 101.833L66.5004 130.083C65.0004 131.583 62.3337 131.833 60.5837 130.083C59.8208 129.287 59.3948 128.227 59.3948 127.125C59.3948 126.022 59.8208 124.963 60.5837 124.167L88.8337 95.9166L77.0004 84.1666L48.7504 112.417C47.2504 113.917 44.5837 114.167 42.8337 112.417C42.0708 111.621 41.6448 110.561 41.6448 109.458C41.6448 108.356 42.0708 107.296 42.8337 106.5L79.3337 69.9999L94.917 85.4999C102.834 93.4166 116.5 93.3333 124.417 85.4999C132.584 77.3333 132.584 64.1666 124.417 55.9999L108.917 40.5L111.25 38.1666C117.75 31.6666 128.334 31.6666 134.834 38.1666L170.167 73.4999C176.667 79.9999 176.667 90.5833 170.167 97.0833L101.834 165.417ZM181.917 108.917C188.16 102.656 191.666 94.1748 191.666 85.3333C191.666 76.4917 188.16 68.0109 181.917 61.7499L146.584 26.4166C140.323 20.1737 131.842 16.668 123 16.668C114.159 16.668 105.678 20.1737 99.417 26.4166L97.0837 28.75L94.7504 26.4166C88.4894 20.1737 80.0086 16.668 71.167 16.668C62.3255 16.668 53.8446 20.1737 47.5837 26.4166L18.0837 55.9166C12.4462 61.5349 9.00981 68.9881 8.39822 76.9236C7.78662 84.8591 10.0404 92.7509 14.7504 99.1666L26.8337 87.0833C25.2228 83.938 24.6534 80.362 25.2076 76.8719C25.7618 73.3818 27.411 70.1582 29.917 67.6666L59.4171 38.1666C65.9171 31.6666 76.5004 31.6666 83.0004 38.1666L112.667 67.8333C114.167 69.3333 114.417 72 112.667 73.75C110.917 75.5 108.25 75.25 106.75 73.75L79.3337 46.4166L31.0004 94.6666C22.8337 102.75 22.8337 116 31.0004 124.167C34.2504 127.417 38.4171 129.417 42.8337 130C43.4173 134.481 45.4663 138.643 48.6616 141.839C51.857 145.034 56.0193 147.083 60.5004 147.667C61.0839 152.148 63.1329 156.31 66.3283 159.505C69.5237 162.701 73.686 164.75 78.167 165.333C78.7504 169.833 80.7504 173.917 84.0004 177.167C87.917 181.083 93.167 183.25 98.7504 183.25C104.334 183.25 109.584 181.083 113.5 177.167L181.917 108.917Z" fill="#F1F7F6"/>
  </g>
  <defs>
    <clipPath id="clip0_124_1381">
      <rect width="200" height="200" fill="white"/>
    </clipPath>
  </defs>
</svg>
