<svg width="200" height="200" viewBox="0 0 200 200" fill="none"
  xmlns="http://www.w3.org/2000/svg">
  <path d="M100 87.2749C120.8 66.3624 172.813 102.95 100 150C27.1877 102.95 79.2002 66.3624 100 87.2749Z" fill="#F1F7F6"/>
  <path d="M108.838 18.7499C106.493 16.4065 103.315 15.0901 100 15.0901C96.6855 15.0901 93.5067 16.4065 91.1626 18.7499L8.07506 101.825C6.90313 102.999 6.24541 104.59 6.24658 106.248C6.24776 107.907 6.90773 109.497 8.08131 110.669C9.25489 111.841 10.846 112.498 12.5045 112.497C14.163 112.496 15.7531 111.836 16.9251 110.662L25.0001 102.587V168.75C25.0001 173.723 26.9755 178.492 30.4918 182.008C34.0081 185.524 38.7773 187.5 43.7501 187.5H156.25C161.223 187.5 165.992 185.524 169.508 182.008C173.025 178.492 175 173.723 175 168.75V102.587L183.075 110.662C184.247 111.836 185.837 112.496 187.496 112.497C189.154 112.498 190.745 111.841 191.919 110.669C193.092 109.497 193.752 107.907 193.754 106.248C193.755 104.59 193.097 102.999 191.925 101.825L162.5 72.4124V31.2499C162.5 29.5923 161.842 28.0026 160.669 26.8305C159.497 25.6584 157.908 24.9999 156.25 24.9999H143.75C142.092 24.9999 140.503 25.6584 139.331 26.8305C138.159 28.0026 137.5 29.5923 137.5 31.2499V47.4124L108.838 18.7499ZM162.5 90.0874V168.75C162.5 170.408 161.842 171.997 160.669 173.169C159.497 174.341 157.908 175 156.25 175H43.7501C42.0925 175 40.5027 174.341 39.3306 173.169C38.1585 171.997 37.5001 170.408 37.5001 168.75V90.0874L100 27.5874L162.5 90.0874Z" fill="#F1F7F6"/>
</svg>
