<svg width="200" height="200" viewBox="0 0 200 200" fill="none"
  xmlns="http://www.w3.org/2000/svg">
  <path d="M180.977 151.992L155.047 28.7109C154.712 27.0987 154.061 25.5687 153.132 24.2087C152.204 22.8487 151.016 21.6856 149.637 20.7861C148.257 19.8867 146.714 19.2686 145.095 18.9674C143.476 18.6663 141.814 18.6879 140.203 19.0312L103.633 26.8906C100.398 27.5989 97.5738 29.5557 95.7742 32.3354C93.9747 35.1152 93.3455 38.4931 94.0234 41.7343L119.953 165.016C120.531 167.828 122.06 170.356 124.282 172.174C126.504 173.993 129.285 174.991 132.156 175C133.044 174.999 133.929 174.905 134.797 174.719L171.367 166.859C174.606 166.149 177.433 164.189 179.233 161.404C181.033 158.62 181.659 155.237 180.977 151.992ZM106.25 39.1796C106.25 39.1328 106.25 39.1093 106.25 39.1093L142.813 31.2968L145.414 43.6953L108.852 51.5625L106.25 39.1796ZM111.422 63.7656L148 55.914L150.609 68.3359L114.063 76.1953L111.422 63.7656ZM116.609 88.4296L153.188 80.5703L163.578 129.977L127 137.836L116.609 88.4296ZM168.75 154.641L132.188 162.453L129.586 150.055L166.148 142.187L168.75 154.57C168.75 154.617 168.75 154.641 168.75 154.641ZM81.25 24.9999H43.75C40.4348 24.9999 37.2554 26.3169 34.9112 28.6611C32.567 31.0053 31.25 34.1847 31.25 37.4999V162.5C31.25 165.815 32.567 168.995 34.9112 171.339C37.2554 173.683 40.4348 175 43.75 175H81.25C84.5652 175 87.7446 173.683 90.0888 171.339C92.433 168.995 93.75 165.815 93.75 162.5V37.4999C93.75 34.1847 92.433 31.0053 90.0888 28.6611C87.7446 26.3169 84.5652 24.9999 81.25 24.9999ZM43.75 37.4999H81.25V49.9999H43.75V37.4999ZM43.75 62.5H81.25V137.5H43.75V62.5ZM81.25 162.5H43.75V150H81.25V162.5Z" fill="#F1F7F6"/>
</svg>
