<svg width="200" height="200" viewBox="0 0 200 200" fill="none"
  xmlns="http://www.w3.org/2000/svg">
  <path d="M185.945 113.204C183.902 111.629 181.559 110.486 179.059 109.845C176.559 109.205 173.956 109.08 171.406 109.477C186.078 94.6648 193.5 79.9382 193.5 65.5007C193.5 44.821 176.867 28.0007 156.422 28.0007C150.997 27.9667 145.63 29.1205 140.699 31.3811C135.767 33.6418 131.39 36.9545 127.875 41.0867C124.36 36.9545 119.983 33.6418 115.051 31.3811C110.12 29.1205 104.753 27.9667 99.3281 28.0007C78.8828 28.0007 62.25 44.821 62.25 65.5007C62.25 74.0945 64.7812 82.446 70.1094 91.282C65.7456 92.3875 61.7632 94.6555 58.5859 97.8445L40.9141 115.501H18.5C15.1848 115.501 12.0054 116.818 9.66117 119.162C7.31696 121.506 6 124.686 6 128.001L6 159.251C6 162.566 7.31696 165.745 9.66117 168.09C12.0054 170.434 15.1848 171.751 18.5 171.751H99.75C100.261 171.751 100.77 171.688 101.266 171.563L151.266 159.063C151.584 158.987 151.895 158.883 152.195 158.751L182.562 145.829L182.906 145.673C185.825 144.214 188.324 142.037 190.168 139.346C192.013 136.655 193.142 133.538 193.449 130.29C193.756 127.042 193.231 123.769 191.924 120.78C190.617 117.791 188.57 115.183 185.977 113.204H185.945ZM99.3281 40.5007C104.169 40.4299 108.921 41.8044 112.976 44.4486C117.031 47.0928 120.206 50.8865 122.094 55.3445C122.565 56.4908 123.366 57.4713 124.395 58.1613C125.424 58.8513 126.636 59.2197 127.875 59.2197C129.114 59.2197 130.326 58.8513 131.355 58.1613C132.384 57.4713 133.185 56.4908 133.656 55.3445C135.544 50.8865 138.719 47.0928 142.774 44.4486C146.829 41.8044 151.581 40.4299 156.422 40.5007C169.742 40.5007 181 51.946 181 65.5007C181 80.7429 168.664 97.9851 145.328 115.423L136.664 117.415C137.425 114.202 137.448 110.859 136.733 107.636C136.017 104.413 134.582 101.394 132.534 98.8049C130.486 96.2156 127.878 94.1235 124.907 92.6854C121.935 91.2473 118.676 90.5004 115.375 90.5007H84.6562C77.9141 81.407 74.75 73.407 74.75 65.5007C74.75 51.946 86.0078 40.5007 99.3281 40.5007ZM18.5 128.001H37.25V159.251H18.5V128.001ZM177.43 134.415L147.742 147.055L98.9688 159.251H49.75V124.337L67.4297 106.665C68.5862 105.499 69.9629 104.575 71.4798 103.946C72.9967 103.317 74.6235 102.995 76.2656 103.001H115.375C117.861 103.001 120.246 103.988 122.004 105.747C123.762 107.505 124.75 109.889 124.75 112.376C124.75 114.862 123.762 117.247 122.004 119.005C120.246 120.763 117.861 121.751 115.375 121.751H93.5C91.8424 121.751 90.2527 122.409 89.0806 123.581C87.9085 124.753 87.25 126.343 87.25 128.001C87.25 129.658 87.9085 131.248 89.0806 132.42C90.2527 133.592 91.8424 134.251 93.5 134.251H118.5C118.97 134.249 119.439 134.197 119.898 134.094L172.242 122.055L172.484 121.993C174.082 121.549 175.788 121.712 177.273 122.451C178.758 123.189 179.917 124.45 180.528 125.992C181.139 127.534 181.158 129.247 180.582 130.802C180.005 132.357 178.874 133.644 177.406 134.415H177.43Z" fill="white"/>
</svg>
