<svg width="38" height="60" viewBox="0 0 38 60" fill="none"
  xmlns="http://www.w3.org/2000/svg">
  <path d="M13.6666 11.3333C13.6666 12.8061 12.4727 14 10.9999 14C9.52716 14 8.33325 12.8061 8.33325 11.3333C8.33325 9.86053 9.52716 8.66663 10.9999 8.66663C12.4727 8.66663 13.6666 9.86053 13.6666 11.3333Z" fill="#F1F7F6" />
  <path d="M10.9999 22C12.4727 22 13.6666 20.806 13.6666 19.3333C13.6666 17.8605 12.4727 16.6666 10.9999 16.6666C9.52716 16.6666 8.33325 17.8605 8.33325 19.3333C8.33325 20.806 9.52716 22 10.9999 22Z" fill="#F1F7F6" />
  <path d="M13.6666 48.6666C13.6666 50.1394 12.4727 51.3333 10.9999 51.3333C9.52716 51.3333 8.33325 50.1394 8.33325 48.6666C8.33325 47.1939 9.52716 46 10.9999 46C12.4727 46 13.6666 47.1939 13.6666 48.6666Z" fill="#F1F7F6" />
  <path d="M10.9999 30C12.4727 30 13.6666 28.806 13.6666 27.3333C13.6666 25.8605 12.4727 24.6666 10.9999 24.6666C9.52716 24.6666 8.33325 25.8605 8.33325 27.3333C8.33325 28.806 9.52716 30 10.9999 30Z" fill="#F1F7F6" />
  <path d="M21.6666 11.3333C21.6666 12.8061 20.4727 14 18.9999 14C17.5272 14 16.3333 12.8061 16.3333 11.3333C16.3333 9.86053 17.5272 8.66663 18.9999 8.66663C20.4727 8.66663 21.6666 9.86053 21.6666 11.3333Z" fill="#F1F7F6" />
  <path d="M18.9999 22C20.4727 22 21.6666 20.806 21.6666 19.3333C21.6666 17.8605 20.4727 16.6666 18.9999 16.6666C17.5272 16.6666 16.3333 17.8605 16.3333 19.3333C16.3333 20.806 17.5272 22 18.9999 22Z" fill="#F1F7F6" />
  <path d="M21.6666 48.6666C21.6666 50.1394 20.4727 51.3333 18.9999 51.3333C17.5272 51.3333 16.3333 50.1394 16.3333 48.6666C16.3333 47.1939 17.5272 46 18.9999 46C20.4727 46 21.6666 47.1939 21.6666 48.6666Z" fill="#F1F7F6" />
  <path d="M26.9999 14C28.4727 14 29.6666 12.8061 29.6666 11.3333C29.6666 9.86053 28.4727 8.66663 26.9999 8.66663C25.5272 8.66663 24.3333 9.86053 24.3333 11.3333C24.3333 12.8061 25.5272 14 26.9999 14Z" fill="#F1F7F6" />
  <path d="M29.6666 19.3333C29.6666 20.806 28.4727 22 26.9999 22C25.5272 22 24.3333 20.806 24.3333 19.3333C24.3333 17.8605 25.5272 16.6666 26.9999 16.6666C28.4727 16.6666 29.6666 17.8605 29.6666 19.3333Z" fill="#F1F7F6" />
  <path d="M26.9999 51.3333C28.4727 51.3333 29.6666 50.1394 29.6666 48.6666C29.6666 47.1939 28.4727 46 26.9999 46C25.5272 46 24.3333 47.1939 24.3333 48.6666C24.3333 50.1394 25.5272 51.3333 26.9999 51.3333Z" fill="#F1F7F6" />
  <path fill-rule="evenodd" clip-rule="evenodd" d="M8.33325 0.666626C3.91497 0.666626 0.333252 4.24835 0.333252 8.66662V51.3333C0.333252 55.7516 3.91498 59.3333 8.33325 59.3333H29.6666C34.0849 59.3333 37.6666 55.7516 37.6666 51.3333V8.66663C37.6666 4.24835 34.0849 0.666626 29.6666 0.666626H8.33325ZM29.6666 5.99996H8.33325C6.86049 5.99996 5.66659 7.19387 5.66659 8.66662V51.3333C5.66659 52.806 6.86049 54 8.33325 54H29.6666C31.1393 54 32.3333 52.806 32.3333 51.3333V8.66663C32.3333 7.19387 31.1393 5.99996 29.6666 5.99996Z" fill="#F1F7F6" />
</svg>