<svg width="48" height="60" viewBox="0 0 48 60" fill="none"
  xmlns="http://www.w3.org/2000/svg">
  <path fill-rule="evenodd" clip-rule="evenodd" d="M48 21.3923L29.3888 2.78113C26.2646 -0.34306 21.1993 -0.343061 18.0751 2.78113L0 20.8563V59.562H18.6667V43.562C18.6667 40.6165 21.0545 38.2287 24 38.2287C26.9455 38.2287 29.3333 40.6165 29.3333 43.562V59.562H48V21.3923ZM21.8464 6.55237L5.33333 23.0654V54.2287H13.3333V43.562C13.3333 37.671 18.109 32.8953 24 32.8953C29.891 32.8953 34.6667 37.671 34.6667 43.562V54.2287H42.6667V23.6014L25.6176 6.55237C24.5762 5.51097 22.8878 5.51097 21.8464 6.55237Z" fill="#F1F7F6" />
</svg>