<svg width="60" height="60" viewBox="0 0 60 60" fill="none"
  xmlns="http://www.w3.org/2000/svg">
  <path fill-rule="evenodd" clip-rule="evenodd" d="M19.3333 22C19.3333 27.891 24.1089 32.6666 29.9999 32.6666C35.891 32.6666 40.6666 27.891 40.6666 22C40.6666 16.1089 35.891 11.3333 29.9999 11.3333C24.1089 11.3333 19.3333 16.1089 19.3333 22ZM24.6666 22C24.6666 24.9455 27.0544 27.3333 29.9999 27.3333C32.9454 27.3333 35.3333 24.9455 35.3333 22C35.3333 19.0544 32.9454 16.6666 29.9999 16.6666C27.0544 16.6666 24.6666 19.0544 24.6666 22Z" fill="#F1F7F6" />
  <path fill-rule="evenodd" clip-rule="evenodd" d="M29.9999 0.666626C46.2003 0.666626 59.3333 13.7996 59.3333 30C59.3333 46.2003 46.2003 59.3333 29.9999 59.3333C13.7996 59.3333 0.666589 46.2003 0.666589 30C0.666589 13.7996 13.7996 0.666626 29.9999 0.666626ZM53.9999 30C53.9999 35.5738 52.0998 40.7039 48.912 44.7778C44.5267 39.037 37.6099 35.3333 29.828 35.3333C22.147 35.3333 15.3088 38.9415 10.9159 44.5554C7.83183 40.518 5.99992 35.4729 5.99992 30C5.99992 16.7451 16.7451 5.99996 29.9999 5.99996C43.2548 5.99996 53.9999 16.7451 53.9999 30ZM29.9999 54C35.7339 54 40.9982 51.9891 45.1261 48.6342C41.7505 43.8165 36.1571 40.6666 29.828 40.6666C23.5774 40.6666 18.0444 43.7388 14.6565 48.4556C18.8163 51.9176 24.1649 54 29.9999 54Z" fill="#F1F7F6" />
</svg>